# 3ds Max Wavefront OBJ Exporter v0.97b - (c)2007 guruware
# File Created: 07.06.2015 20:09:11

mtllib room.mtl

#
# object SectionA
#

v  13.7666 -2.2837 -21.8363
v  28.8879 -2.2837 -18.6214
v  28.8879 7.7163 -18.6214
v  13.6713 7.7163 -20.9836
v  -5.0511 -2.2837 -22.0836
v  -4.9782 7.7163 -21.2287
v  -23.5554 -2.2837 -18.6549
v  -23.5554 7.7163 -18.6549
v  -41.0353 7.7163 -11.6821
v  -41.0353 6.2956 -11.6821
v  -41.0353 -2.2837 -11.6821
v  12.1835 -2.2837 -7.6735
v  27.8671 -2.2837 -4.3668
v  31.1569 -2.2837 -14.7204
v  31.3918 -2.2837 -15.9012
v  31.2823 -2.2837 -16.8817
v  30.8285 -2.2837 -17.6619
v  30.0304 -2.2837 -18.2418
v  -3.8407 -2.2837 -7.8841
v  -19.5981 -2.2837 -4.9644
v  -34.7830 -2.2828 1.5081
v  -19.6057 7.7163 -4.9906
v  -34.7830 7.7172 1.5081
v  -3.8430 7.7163 -7.9112
v  12.1866 7.7163 -7.7006
v  30.0304 7.7163 -18.2418
v  30.8285 7.7163 -17.6619
v  31.2823 7.7163 -16.8817
v  31.3918 7.7163 -15.9012
v  31.1569 7.7163 -14.7204
v  27.8671 7.7163 -4.3668
v  20.4894 -2.2837 18.8513
v  9.4804 -2.2837 16.5107
v  -1.7738 -2.2837 16.3628
v  -12.8406 -2.2837 18.4134
v  -23.2947 -2.2837 22.5835
v  -23.2947 7.7163 22.5835
v  -12.8406 7.7163 18.4134
v  -1.7738 7.7163 16.3628
v  9.4804 7.7163 16.5107
v  20.4894 7.7163 18.8513
v  17.5682 -2.2837 28.0448
v  8.4088 -2.2837 26.0974
v  -0.9545 -2.2837 25.9744
v  -10.1619 -2.2837 27.6804
v  -18.8596 -2.2837 31.1500
v  -18.8596 7.7163 31.1500
v  -10.1619 7.7163 27.6804
v  -0.9545 7.7163 25.9744
v  8.4088 7.7163 26.0974
v  17.5682 7.7163 28.0448
v  5.1941 -2.2837 54.8577
v  9.3513 -2.2837 53.9042
v  9.2208 -2.2837 54.5523
v  9.4892 -2.2837 55.6065
v  9.2668 -2.2837 55.1197
v  1.5034 -2.2837 54.8092
v  -2.1258 -2.2837 55.4816
v  -2.1258 7.7163 55.4816
v  -3.8768 7.7163 56.1801
v  -5.0831 7.7163 56.3517
v  -4.5138 7.7163 56.3568
v  -5.5846 7.7163 56.1648
v  -6.0184 7.7163 55.7961
v  -6.3844 7.7163 55.2455
v  1.5034 7.7163 54.8092
v  5.1941 7.7163 54.8577
v  9.3513 7.7163 53.9042
v  9.0838 7.7163 54.5087
v  8.7187 7.7163 54.9456
v  8.2560 7.7163 55.2147
v  7.6958 7.7163 55.3161
v  7.0380 7.7163 55.2497
v  20.4894 6.2956 18.8513
v  -34.7830 6.2965 1.5081
v  17.5682 6.2956 28.0448
v  -6.3844 -2.2837 55.2455
v  -6.1461 -2.2837 55.8622
v  -6.0954 -2.2837 56.4292
v  -6.2322 -2.2837 56.9467
# 80 vertices

vn -0.1109 -0.0571 0.9922
vn -0.1802 -0.0280 0.9832
vn -0.1534 0.0000 0.9882
vn -0.0974 -0.0431 0.9943
vn 0.0720 -0.0449 0.9964
vn 0.0621 -0.0571 0.9964
vn 0.2777 0.0000 0.9607
vn 0.2683 -0.0123 0.9633
vn 0.3705 0.0000 0.9288
vn 0.0000 1.0000 -0.0000
vn 0.0000 -1.0000 -0.0000
vn -0.9530 0.0000 -0.3028
vn 0.8830 0.0000 -0.4692
vn 0.8880 0.0000 -0.4598
vn 0.8781 0.0000 -0.4786
vn 0.9036 0.0000 -0.4283
vn -0.4570 0.0000 0.8895
vn -0.3153 0.0000 0.9489
vn -0.7421 0.0000 0.6703
vn -0.9495 0.0000 0.3136
vn -0.9991 0.0000 -0.0425
vn -0.9808 0.0000 -0.1951
# 22 vertex normals

vt 0.0012 0.3358 0.0000
vt 0.0012 0.2380 0.0000
vt 0.1239 0.2380 0.0000
vt 0.1239 0.3397 0.0000
vt 0.0012 0.4715 0.0000
vt 0.1239 0.4742 0.0000
vt 0.0012 0.6189 0.0000
vt 0.1239 0.6189 0.0000
vt 0.1239 0.7721 0.0000
vt 0.1064 0.7721 0.0000
vt 0.0012 0.7721 0.0000
vt 0.5900 0.3679 0.0000
vt 0.6703 0.4656 0.0000
vt 0.5733 0.5304 0.0000
vt 0.4903 0.4289 0.0000
vt 0.5532 0.3661 0.0000
vt 0.5608 0.3599 0.0000
vt 0.5684 0.3570 0.0000
vt 0.5758 0.3574 0.0000
vt 0.5830 0.3610 0.0000
vt 0.7428 0.6014 0.0000
vt 0.6351 0.6460 0.0000
vt 0.7875 0.7487 0.0000
vt 0.6732 0.7715 0.0000
vt 0.8026 0.9019 0.0000
vt 0.6833 0.9061 0.0000
vt 0.2583 0.1304 0.0000
vt 0.1236 0.1205 0.0000
vt 0.1278 0.0012 0.0000
vt 0.2810 0.0163 0.0000
vt 0.4256 0.0674 0.0000
vt 0.3838 0.1685 0.0000
vt 0.5602 0.1394 0.0000
vt 0.4994 0.2303 0.0000
vt 0.6618 0.2138 0.0000
vt 0.6687 0.2208 0.0000
vt 0.6723 0.2280 0.0000
vt 0.6727 0.2354 0.0000
vt 0.6698 0.2429 0.0000
vt 0.6636 0.2506 0.0000
vt 0.6008 0.3135 0.0000
vt 0.3494 0.5698 0.0000
vt 0.4078 0.6410 0.0000
vt 0.4512 0.7222 0.0000
vt 0.4779 0.8103 0.0000
vt 0.4870 0.9019 0.0000
vt 0.1278 0.3168 0.0000
vt 0.2194 0.3258 0.0000
vt 0.3075 0.3526 0.0000
vt 0.3887 0.3960 0.0000
vt 0.4599 0.4544 0.0000
vt 0.2936 0.6256 0.0000
vt 0.3422 0.6848 0.0000
vt 0.3783 0.7524 0.0000
vt 0.4005 0.8257 0.0000
vt 0.4081 0.9019 0.0000
vt 0.1278 0.3957 0.0000
vt 0.2040 0.4032 0.0000
vt 0.2773 0.4255 0.0000
vt 0.3449 0.4616 0.0000
vt 0.4041 0.5102 0.0000
vt 0.1454 0.8164 0.0000
vt 0.1367 0.7826 0.0000
vt 0.7470 0.6004 0.0000
vt 0.7482 0.5951 0.0000
vt 0.7488 0.6091 0.0000
vt 0.7471 0.6051 0.0000
vt 0.1238 0.7880 0.0000
vt 0.1596 0.8430 0.0000
vt 0.1684 0.8719 0.0000
vt 0.1578 0.6354 0.0000
vt 0.1425 0.6339 0.0000
vt 0.1331 0.6306 0.0000
vt 0.1372 0.6328 0.0000
vt 0.1301 0.6274 0.0000
vt 0.1284 0.6231 0.0000
vt 0.1278 0.6177 0.0000
vt 0.1867 0.6442 0.0000
vt 0.2133 0.6584 0.0000
vt 0.2471 0.6671 0.0000
vt 0.2429 0.6705 0.0000
vt 0.2386 0.6723 0.0000
vt 0.2342 0.6725 0.0000
vt 0.2298 0.6712 0.0000
vt 0.2253 0.6682 0.0000
vt 0.8761 0.0379 0.0000
vt 0.9988 0.0379 0.0000
vt 0.9988 0.1007 0.0000
vt 0.8761 0.1007 0.0000
vt 0.8936 0.2416 0.0000
vt 0.8761 0.2416 0.0000
vt 0.9988 0.2416 0.0000
vt 0.7511 0.3035 0.0000
vt 0.7511 0.2246 0.0000
vt 0.8738 0.2246 0.0000
vt 0.8738 0.3035 0.0000
vt 0.7685 0.4998 0.0000
vt 0.7511 0.4998 0.0000
vt 0.8738 0.4998 0.0000
vt 0.8936 0.2974 0.0000
vt 0.9988 0.2974 0.0000
vt 0.8761 0.4544 0.0000
vt 0.8761 0.2974 0.0000
vt 0.9988 0.4544 0.0000
vt 0.7685 0.6191 0.0000
vt 0.7511 0.6191 0.0000
vt 0.9988 0.0080 0.0000
vt 0.8761 0.0080 0.0000
vt 0.8761 0.0010 0.0000
vt 0.9988 0.0010 0.0000
vt 0.9988 0.0153 0.0000
vt 0.8761 0.0153 0.0000
vt 0.9988 0.0226 0.0000
vt 0.8761 0.0226 0.0000
vt 0.9988 0.0302 0.0000
vt 0.8761 0.0302 0.0000
vt 0.1861 0.9019 0.0000
vt 0.1807 0.9025 0.0000
vt 0.1764 0.9043 0.0000
vt 0.1732 0.9072 0.0000
vt 0.8738 0.0026 0.0000
vt 0.7511 0.0026 0.0000
# 122 texture coords

g SectionA
usemtl Map_Diffuse_SectionA.png
s 8
f 1/1/1 2/2/2 3/3/3 
f 3/3/3 4/4/4 1/1/1 
f 5/5/5 1/1/1 4/4/4 
f 4/4/4 6/6/6 5/5/5 
f 7/7/7 5/5/5 6/6/6 
f 6/6/6 8/8/8 7/7/7 
f 8/8/8 9/9/9 10/10/9 
f 10/10/9 7/7/7 8/8/8 
f 7/7/7 10/10/9 11/11/9 
s off
f 2/12/10 1/13/10 12/14/10 
f 12/14/10 13/15/10 2/12/10 
f 14/16/10 15/17/10 16/18/10 
f 16/18/10 13/15/10 14/16/10 
f 16/18/10 17/19/10 18/20/10 
f 18/20/10 13/15/10 16/18/10 
f 2/12/10 13/15/10 18/20/10 
f 12/14/10 1/13/10 5/21/10 
f 5/21/10 19/22/10 12/14/10 
f 19/22/10 5/21/10 7/23/10 
f 7/23/10 20/24/10 19/22/10 
f 20/24/10 7/23/10 11/25/10 
f 11/25/10 21/26/10 20/24/10 
f 22/27/11 23/28/11 9/29/11 
f 9/29/11 8/30/11 22/27/11 
f 22/27/11 8/30/11 6/31/11 
f 6/31/11 24/32/11 22/27/11 
f 24/32/11 6/31/11 4/33/11 
f 4/33/11 25/34/11 24/32/11 
f 3/35/11 26/36/11 27/37/11 
f 27/37/11 4/33/11 3/35/11 
f 27/37/11 28/38/11 29/39/11 
f 29/39/11 4/33/11 27/37/11 
f 29/39/11 30/40/11 31/41/11 
f 31/41/11 4/33/11 29/39/11 
f 4/33/11 31/41/11 25/34/11 
f 32/42/10 13/15/10 12/14/10 
f 12/14/10 33/43/10 32/42/10 
f 33/43/10 12/14/10 19/22/10 
f 19/22/10 34/44/10 33/43/10 
f 34/44/10 19/22/10 20/24/10 
f 20/24/10 35/45/10 34/44/10 
f 35/45/10 20/24/10 21/26/10 
f 21/26/10 36/46/10 35/45/10 
f 37/47/11 23/28/11 22/27/11 
f 22/27/11 38/48/11 37/47/11 
f 38/48/11 22/27/11 24/32/11 
f 24/32/11 39/49/11 38/48/11 
f 39/49/11 24/32/11 25/34/11 
f 25/34/11 40/50/11 39/49/11 
f 40/50/11 25/34/11 31/41/11 
f 31/41/11 41/51/11 40/50/11 
f 42/52/10 32/42/10 33/43/10 
f 33/43/10 43/53/10 42/52/10 
f 43/53/10 33/43/10 34/44/10 
f 34/44/10 44/54/10 43/53/10 
f 44/54/10 34/44/10 35/45/10 
f 35/45/10 45/55/10 44/54/10 
f 46/56/10 45/55/10 35/45/10 
f 35/45/10 36/46/10 46/56/10 
f 47/57/11 37/47/11 38/48/11 
f 38/48/11 48/58/11 47/57/11 
f 48/58/11 38/48/11 39/49/11 
f 39/49/11 49/59/11 48/58/11 
f 49/59/11 39/49/11 40/50/11 
f 40/50/11 50/60/11 49/59/11 
f 50/60/11 40/50/11 41/51/11 
f 41/51/11 51/61/11 50/60/11 
f 43/53/10 52/62/10 53/63/10 
f 53/63/10 42/52/10 43/53/10 
f 54/64/11 53/65/11 55/66/11 
f 55/66/11 56/67/11 54/64/11 
f 52/62/10 55/68/10 53/63/10 
f 52/62/10 43/53/10 44/54/10 
f 44/54/10 57/69/10 52/62/10 
f 57/69/10 44/54/10 45/55/10 
f 45/55/10 58/70/10 57/69/10 
f 59/71/11 60/72/11 61/73/11 
f 61/73/11 48/58/11 59/71/11 
f 60/72/11 62/74/11 61/73/11 
f 61/73/11 63/75/11 64/76/11 
f 64/76/11 65/77/11 61/73/11 
f 48/58/11 61/73/11 65/77/11 
f 65/77/11 47/57/11 48/58/11 
f 59/71/11 48/58/11 49/59/11 
f 49/59/11 66/78/11 59/71/11 
f 66/78/11 49/59/11 50/60/11 
f 50/60/11 67/79/11 66/78/11 
f 68/80/11 69/81/11 70/82/11 
f 70/82/11 51/61/11 68/80/11 
f 70/82/11 71/83/11 72/84/11 
f 72/84/11 51/61/11 70/82/11 
f 72/84/11 73/85/11 50/60/11 
f 50/60/11 51/61/11 72/84/11 
f 73/85/11 67/79/11 50/60/11 
s 1
f 30/86/12 14/87/12 13/88/12 
f 13/88/12 31/89/12 30/86/12 
f 74/90/12 41/91/12 13/88/12 
f 13/88/12 32/92/12 74/90/12 
f 13/88/12 41/91/12 31/89/12 
s 2
f 37/93/13 47/94/14 46/95/14 
f 46/95/14 36/96/13 37/93/13 
f 75/97/15 23/98/15 36/96/13 
f 36/96/13 21/99/15 75/97/15 
f 36/96/13 23/98/15 37/93/13 
f 76/100/12 42/101/12 68/102/12 
f 68/102/12 51/103/12 76/100/12 
f 68/102/12 42/101/12 53/104/12 
s 8
f 76/100/12 51/103/12 41/91/12 
f 41/91/12 74/90/12 76/100/12 
s 16
f 23/98/16 75/97/16 10/105/16 
f 10/105/16 9/106/16 23/98/16 
s 2
f 18/107/17 26/108/17 3/109/18 
f 3/109/18 2/110/18 18/107/17 
f 17/111/19 27/112/19 26/108/17 
f 26/108/17 18/107/17 17/111/19 
f 16/113/20 28/114/20 27/112/19 
f 27/112/19 17/111/19 16/113/20 
f 15/115/21 29/116/21 28/114/20 
f 28/114/20 16/113/20 15/115/21 
f 14/87/22 30/86/22 29/116/21 
f 29/116/21 15/115/21 14/87/22 
s off
f 45/55/10 46/56/10 77/117/10 
f 77/117/10 58/70/10 45/55/10 
f 58/70/10 78/118/10 79/119/10 
f 79/119/10 80/120/10 58/70/10 
f 77/117/10 78/118/10 58/70/10 
f 77/121/14 46/95/14 47/94/14 
f 47/94/14 65/122/14 77/121/14 
# 128 faces

